<svg width="300" height="300" viewBox="0 0 44 44" fill="none" xmlns="http://www.w3.org/2000/svg">
<rect width="44" height="44" rx="4" fill="white"/>
<path d="M12.4517 10C10.6537 10 9.46879 11.8776 10.2391 13.5062L12.9882 19.3187C13.3935 20.1756 14.2549 20.7218 15.2009 20.7218H16.3867C18.1227 20.7218 19.3075 18.9611 18.6571 17.3476L16.3143 11.5351C15.9403 10.6074 15.042 10 14.0438 10H12.4517Z" fill="black"/>
<path d="M28.9108 10C27.9126 10 27.0143 10.6074 26.6404 11.5351L22.1193 22.7517C21.886 23.3304 21.0687 23.3304 20.8354 22.7517C20.5801 22.1183 19.9669 21.7037 19.2854 21.7037H17.9873C16.1892 21.7037 15.0043 23.5813 15.7746 25.2099L19.2684 32.5969C20.1524 34.466 22.805 34.4682 23.692 32.6005L32.7592 13.5098C33.5329 11.8809 32.348 10 30.5483 10H28.9108Z" fill="black"/>
</svg>
